<svg xmlns="http://www.w3.org/2000/svg" viewBox="0 0 32 40" x="0px" y="0px"><title>92- pressure- air- wind- weather</title><path d="M12.13,14.58l3.06,4.28a1,1,0,0,0,1.63,0l3.06-4.28A1,1,0,0,0,19.06,13H12.94A1,1,0,0,0,12.13,14.58Z"/><path d="M3,24a1,1,0,0,1,0-2H25.83a2.24,2.24,0,0,0,2-1.29A2,2,0,0,0,27.5,19a2.28,2.28,0,0,0-1.69-1h0a2.45,2.45,0,0,0-2,1.45,1,1,0,1,1-1.79-.9A4.38,4.38,0,0,1,25.86,16a4.25,4.25,0,0,1,3.26,1.85,3.94,3.94,0,0,1,.66,3.45,4.19,4.19,0,0,1-3.9,2.7Z"/><path d="M29,27H3a1,1,0,0,1,0-2H29a1,1,0,0,1,0,2Z"/><path d="M29,30H3a1,1,0,0,1,0-2H29a1,1,0,0,1,0,2Z"/><path d="M16,17a1,1,0,0,1-1-1V4a1,1,0,0,1,2,0V16A1,1,0,0,1,16,17Z"/><text x="0" y="47" fill="#000000" font-size="5px" font-weight="bold" font-family="'Helvetica Neue', Helvetica, Arial-Unicode, Arial, Sans-serif">Created by Andi Nur Abdillah</text><text x="0" y="52" fill="#000000" font-size="5px" font-weight="bold" font-family="'Helvetica Neue', Helvetica, Arial-Unicode, Arial, Sans-serif">from the Noun Project</text></svg>